<svg width="33" height="32" viewBox="0 0 33 32" fill="none" xmlns="http://www.w3.org/2000/svg">
<rect width="32" height="32" rx="10" fill="#272727"/>
<g opacity="0.2" filter="url(#filter0_f_107_94)">
<ellipse cx="16.0653" cy="15.6507" rx="10" ry="1.91145" transform="rotate(-37.8962 16.0653 15.6507)" fill="white"/>
</g>
<path d="M4.10645 16.2937C4.04395 16.2312 4.0127 16.0828 4.0127 15.8484C4.0127 15.614 4.04395 15.4968 4.10645 15.4968C4.23145 15.4968 4.40332 15.4734 4.62207 15.4265C4.85645 15.364 5.06738 15.2937 5.25488 15.2156C5.45801 15.1218 5.56738 15.0437 5.58301 14.9812C5.69238 14.5437 5.74707 13.9734 5.74707 13.2703V9.44995C5.74707 8.74683 5.62207 8.24683 5.37207 7.94995C5.23145 7.77808 5.05176 7.6687 4.83301 7.62183C4.62988 7.55933 4.4502 7.52026 4.29395 7.50464C4.1377 7.47339 4.05957 7.43433 4.05957 7.38745C4.05957 6.94995 4.09863 6.71558 4.17676 6.68433C4.53613 6.65308 5.05957 6.57495 5.74707 6.44995C6.4502 6.32495 7.10645 6.18433 7.71582 6.02808C7.74707 6.01245 7.81738 5.99683 7.92676 5.9812C8.05176 5.94995 8.12207 5.93433 8.1377 5.93433C8.2002 5.93433 8.25488 5.98901 8.30176 6.09839C8.34863 6.20776 8.37207 6.2937 8.37207 6.3562C8.34082 6.57495 8.31738 6.75464 8.30176 6.89526C8.28613 7.03589 8.27832 7.13745 8.27832 7.19995C8.27832 7.27808 8.29395 7.31714 8.3252 7.31714C8.34082 7.31714 8.37207 7.2937 8.41895 7.24683C8.79395 6.87183 9.27051 6.5437 9.84863 6.26245C10.4424 5.9812 11.0439 5.84058 11.6533 5.84058C13.6689 5.84058 14.6768 7.44214 14.6768 10.6453V12.8718C14.6768 13.8562 14.7314 14.5593 14.8408 14.9812C14.8721 15.0437 14.9814 15.1218 15.1689 15.2156C15.3721 15.2937 15.583 15.364 15.8018 15.4265C16.0361 15.4734 16.2002 15.4968 16.2939 15.4968C16.3408 15.4968 16.3643 15.614 16.3643 15.8484C16.3799 16.0671 16.3721 16.2156 16.3408 16.2937C16.2783 16.2781 16.0596 16.2546 15.6846 16.2234C15.3252 16.2078 14.9268 16.1921 14.4893 16.1765C14.0674 16.1453 13.7314 16.1296 13.4814 16.1296C13.2314 16.1296 12.9033 16.1453 12.4971 16.1765C12.1064 16.1921 11.7314 16.2078 11.3721 16.2234C11.0283 16.2546 10.8096 16.2781 10.7158 16.2937C10.6533 16.2312 10.6221 16.0828 10.6221 15.8484C10.6221 15.614 10.6533 15.4968 10.7158 15.4968C10.8408 15.4968 11.0049 15.4734 11.208 15.4265C11.4111 15.364 11.5986 15.2937 11.7705 15.2156C11.958 15.1218 12.0596 15.0437 12.0752 14.9812C12.1377 14.7468 12.1846 14.489 12.2158 14.2078C12.2471 13.9265 12.2627 13.614 12.2627 13.2703V11.0437C12.2627 9.74683 12.083 8.84058 11.7236 8.32495C11.3799 7.80933 10.8252 7.55151 10.0596 7.55151C9.55957 7.55151 9.12207 7.69214 8.74707 7.97339C8.37207 8.23901 8.18457 8.52808 8.18457 8.84058V12.8718C8.18457 13.8562 8.23926 14.5593 8.34863 14.9812C8.37988 15.0437 8.48926 15.1218 8.67676 15.2156C8.86426 15.2937 9.06738 15.364 9.28613 15.4265C9.50488 15.4734 9.65332 15.4968 9.73145 15.4968C9.79395 15.4968 9.8252 15.614 9.8252 15.8484C9.84082 16.0671 9.83301 16.2156 9.80176 16.2937C9.72363 16.2781 9.49707 16.2546 9.12207 16.2234C8.7627 16.2078 8.37988 16.1921 7.97363 16.1765C7.56738 16.1453 7.23926 16.1296 6.98926 16.1296C6.73926 16.1296 6.40332 16.1453 5.98145 16.1765C5.55957 16.1921 5.16113 16.2078 4.78613 16.2234C4.42676 16.2546 4.2002 16.2781 4.10645 16.2937Z" fill="white" fill-opacity="0.5"/>
<path d="M18.501 27.9695C18.458 27.8979 18.4365 27.769 18.4365 27.5828C18.4365 27.3679 18.458 27.2605 18.501 27.2605C18.6156 27.2605 18.7731 27.2319 18.9736 27.1746C19.1885 27.1316 19.3818 27.0671 19.5537 26.9812C19.7399 26.9096 19.8473 26.838 19.876 26.7664C19.9619 26.351 20.0049 25.8354 20.0049 25.2195V17.0125C20.0049 16.3106 19.8903 15.8451 19.6611 15.616C19.5322 15.4584 19.3747 15.351 19.1885 15.2937C19.0023 15.2364 18.8304 15.2006 18.6729 15.1863C18.5296 15.172 18.458 15.1505 18.458 15.1218C18.458 14.7065 18.501 14.4916 18.5869 14.4773C19.1742 14.42 19.7327 14.3412 20.2627 14.241C20.807 14.1407 21.3154 14.019 21.7881 13.8757L22.1963 13.7683C22.2536 13.7683 22.2822 13.8901 22.2822 14.1335C22.2822 14.2052 22.2751 14.2696 22.2607 14.3269C22.2607 14.3699 22.2536 14.42 22.2393 14.4773C22.4684 14.3054 22.7835 14.1407 23.1846 13.9832C23.5999 13.8113 23.9867 13.7253 24.3447 13.7253C25.2184 13.7253 25.999 13.933 26.6865 14.3484C27.374 14.7638 27.9111 15.3152 28.2979 16.0027C28.6989 16.6902 28.8994 17.4421 28.8994 18.2585C28.8994 19.2325 28.6702 20.1062 28.2119 20.8796C27.7536 21.6531 27.1377 22.2618 26.3643 22.7058C25.6051 23.1498 24.7673 23.3718 23.8506 23.3718C23.4639 23.3718 22.9554 23.2716 22.3252 23.071C22.2679 23.071 22.2393 23.1713 22.2393 23.3718V24.8328C22.2393 25.6921 22.2965 26.3367 22.4111 26.7664C22.4255 26.838 22.5186 26.9096 22.6904 26.9812C22.8766 27.0671 23.07 27.1316 23.2705 27.1746C23.4854 27.2319 23.6357 27.2605 23.7217 27.2605C23.7646 27.2605 23.7861 27.3608 23.7861 27.5613C23.8005 27.7761 23.8005 27.9122 23.7861 27.9695L22.6475 27.905C21.9886 27.8621 21.4945 27.8406 21.165 27.8406C20.807 27.8406 20.3057 27.8621 19.6611 27.905L18.501 27.9695ZM24.0654 22.3406C24.7243 22.3406 25.2757 22.0398 25.7197 21.4382C26.1781 20.8367 26.4072 19.9916 26.4072 18.9031C26.4072 17.7429 26.1781 16.7833 25.7197 16.0242C25.2614 15.2507 24.6312 14.864 23.8291 14.864C23.3564 14.864 22.9697 15.0001 22.6689 15.2722C22.3825 15.5444 22.2393 15.9096 22.2393 16.3679V20.7937C22.2393 21.2664 22.4326 21.6459 22.8193 21.9324C23.2061 22.2045 23.6214 22.3406 24.0654 22.3406Z" fill="white" fill-opacity="0.5"/>
<defs>
<filter id="filter0_f_107_94" x="0.0859375" y="1.32446" width="31.9585" height="28.6526" filterUnits="userSpaceOnUse" color-interpolation-filters="sRGB">
<feFlood flood-opacity="0" result="BackgroundImageFix"/>
<feBlend mode="normal" in="SourceGraphic" in2="BackgroundImageFix" result="shape"/>
<feGaussianBlur stdDeviation="4" result="effect1_foregroundBlur_107_94"/>
</filter>
</defs>
</svg>
