<svg width="33" height="32" viewBox="0 0 33 32" fill="none" xmlns="http://www.w3.org/2000/svg">
<rect width="32" height="32" rx="10" fill="#272727"/>
<rect width="32" height="32" rx="10" fill="black" fill-opacity="0.01"/>
<g opacity="0.2" filter="url(#filter1_f_107_94)">
<ellipse cx="16.0653" cy="15.6507" rx="10" ry="1.91145" transform="rotate(-37.8962 16.0653 15.6507)" fill="white"/>
</g>
<path d="M6.85156 24.1484C6.7526 24.0495 6.70312 23.8145 6.70312 23.4434C6.70312 23.0723 6.7526 22.8867 6.85156 22.8867C7.04948 22.8867 7.32161 22.8496 7.66797 22.7754C8.03906 22.6764 8.37305 22.5651 8.66992 22.4414C8.99154 22.293 9.16471 22.1693 9.18945 22.0703C9.36263 21.3776 9.44922 20.4746 9.44922 19.3613V13.3125C9.44922 12.1992 9.2513 11.4076 8.85547 10.9375C8.63281 10.6654 8.34831 10.4922 8.00195 10.418C7.68034 10.319 7.39583 10.2572 7.14844 10.2324C6.90104 10.1829 6.77734 10.1211 6.77734 10.0469C6.77734 9.35417 6.83919 8.98307 6.96289 8.93359C7.5319 8.88411 8.36068 8.76042 9.44922 8.5625C10.5625 8.36458 11.6016 8.14193 12.5664 7.89453C12.6159 7.86979 12.7272 7.84505 12.9004 7.82031C13.0983 7.77083 13.2096 7.74609 13.2344 7.74609C13.3333 7.74609 13.4199 7.83268 13.4941 8.00586C13.5684 8.17904 13.6055 8.3151 13.6055 8.41406C13.556 8.76042 13.5189 9.04492 13.4941 9.26758C13.4694 9.49023 13.457 9.65104 13.457 9.75C13.457 9.8737 13.4818 9.93555 13.5312 9.93555C13.556 9.93555 13.6055 9.89844 13.6797 9.82422C14.2734 9.23047 15.028 8.71094 15.9434 8.26562C16.8835 7.82031 17.8359 7.59766 18.8008 7.59766C21.9922 7.59766 23.5879 10.1335 23.5879 15.2051V18.7305C23.5879 20.2891 23.6745 21.4023 23.8477 22.0703C23.8971 22.1693 24.0703 22.293 24.3672 22.4414C24.6888 22.5651 25.0228 22.6764 25.3691 22.7754C25.7402 22.8496 26 22.8867 26.1484 22.8867C26.2227 22.8867 26.2598 23.0723 26.2598 23.4434C26.2845 23.7897 26.2721 24.0247 26.2227 24.1484C26.1237 24.1237 25.7773 24.0866 25.1836 24.0371C24.6146 24.0124 23.9837 23.9876 23.291 23.9629C22.623 23.9134 22.0911 23.8887 21.6953 23.8887C21.2995 23.8887 20.7799 23.9134 20.1367 23.9629C19.5182 23.9876 18.9245 24.0124 18.3555 24.0371C17.8112 24.0866 17.4648 24.1237 17.3164 24.1484C17.2174 24.0495 17.168 23.8145 17.168 23.4434C17.168 23.0723 17.2174 22.8867 17.3164 22.8867C17.5143 22.8867 17.7741 22.8496 18.0957 22.7754C18.4173 22.6764 18.7142 22.5651 18.9863 22.4414C19.2832 22.293 19.444 22.1693 19.4688 22.0703C19.5677 21.6992 19.6419 21.291 19.6914 20.8457C19.7409 20.4004 19.7656 19.9056 19.7656 19.3613V15.8359C19.7656 13.7826 19.4811 12.3477 18.9121 11.5312C18.3678 10.7148 17.4896 10.3066 16.2773 10.3066C15.4857 10.3066 14.793 10.5293 14.1992 10.9746C13.6055 11.3952 13.3086 11.8529 13.3086 12.3477V18.7305C13.3086 20.2891 13.3952 21.4023 13.5684 22.0703C13.6178 22.1693 13.791 22.293 14.0879 22.4414C14.3848 22.5651 14.7064 22.6764 15.0527 22.7754C15.3991 22.8496 15.6341 22.8867 15.7578 22.8867C15.8568 22.8867 15.9062 23.0723 15.9062 23.4434C15.931 23.7897 15.9186 24.0247 15.8691 24.1484C15.7454 24.1237 15.3867 24.0866 14.793 24.0371C14.224 24.0124 13.6178 23.9876 12.9746 23.9629C12.3314 23.9134 11.8118 23.8887 11.416 23.8887C11.0202 23.8887 10.4883 23.9134 9.82031 23.9629C9.15234 23.9876 8.52148 24.0124 7.92773 24.0371C7.35872 24.0866 7 24.1237 6.85156 24.1484Z" fill="white" fill-opacity="0.5"/>
<defs>
<filter id="filter1_f_107_94" x="0.0859375" y="1.32446" width="31.9585" height="28.6526" filterUnits="userSpaceOnUse" color-interpolation-filters="sRGB">
<feFlood flood-opacity="0" result="BackgroundImageFix"/>
<feBlend mode="normal" in="SourceGraphic" in2="BackgroundImageFix" result="shape"/>
<feGaussianBlur stdDeviation="4" result="effect1_foregroundBlur_107_94"/>
</filter>
</defs>
</svg>
