<svg width="33" height="32" viewBox="0 0 33 32" fill="none" xmlns="http://www.w3.org/2000/svg">
<rect width="32" height="32" rx="10" fill="#272727"/>
<g opacity="0.2" filter="url(#filter0_f_107_94)">
<ellipse cx="16.0653" cy="15.6507" rx="10" ry="1.91145" transform="rotate(-37.8962 16.0653 15.6507)" fill="white"/>
</g>
<path d="M5.42188 15.5781C5.36979 15.526 5.34375 15.4023 5.34375 15.207C5.34375 15.0117 5.36979 14.9141 5.42188 14.9141C5.52604 14.9141 5.66927 14.8945 5.85156 14.8555C6.04688 14.8034 6.22266 14.7448 6.37891 14.6797C6.54818 14.6016 6.63932 14.5365 6.65234 14.4844C6.74349 14.1198 6.78906 13.6445 6.78906 13.0586V9.875C6.78906 9.28906 6.6849 8.8724 6.47656 8.625C6.35938 8.48177 6.20964 8.39062 6.02734 8.35156C5.85807 8.29948 5.70833 8.26693 5.57812 8.25391C5.44792 8.22786 5.38281 8.19531 5.38281 8.15625C5.38281 7.79167 5.41536 7.59635 5.48047 7.57031C5.77995 7.54427 6.21615 7.47917 6.78906 7.375C7.375 7.27083 7.92188 7.15365 8.42969 7.02344C8.45573 7.01042 8.51432 6.9974 8.60547 6.98438C8.70964 6.95833 8.76823 6.94531 8.78125 6.94531C8.83333 6.94531 8.87891 6.99089 8.91797 7.08203C8.95703 7.17318 8.97656 7.24479 8.97656 7.29688C8.95052 7.47917 8.93099 7.62891 8.91797 7.74609C8.90495 7.86328 8.89844 7.94792 8.89844 8C8.89844 8.0651 8.91146 8.09766 8.9375 8.09766C8.95052 8.09766 8.97656 8.07812 9.01562 8.03906C9.32812 7.72656 9.72526 7.45312 10.207 7.21875C10.7018 6.98438 11.2031 6.86719 11.7109 6.86719C13.3906 6.86719 14.2305 8.20182 14.2305 10.8711V12.7266C14.2305 13.5469 14.276 14.1328 14.3672 14.4844C14.3932 14.5365 14.4844 14.6016 14.6406 14.6797C14.8099 14.7448 14.9857 14.8034 15.168 14.8555C15.3633 14.8945 15.5 14.9141 15.5781 14.9141C15.6172 14.9141 15.6367 15.0117 15.6367 15.207C15.6497 15.3893 15.6432 15.513 15.6172 15.5781C15.5651 15.5651 15.3828 15.5456 15.0703 15.5195C14.7708 15.5065 14.4388 15.4935 14.0742 15.4805C13.7227 15.4544 13.4427 15.4414 13.2344 15.4414C13.026 15.4414 12.7526 15.4544 12.4141 15.4805C12.0885 15.4935 11.776 15.5065 11.4766 15.5195C11.1901 15.5456 11.0078 15.5651 10.9297 15.5781C10.8776 15.526 10.8516 15.4023 10.8516 15.207C10.8516 15.0117 10.8776 14.9141 10.9297 14.9141C11.0339 14.9141 11.1706 14.8945 11.3398 14.8555C11.5091 14.8034 11.6654 14.7448 11.8086 14.6797C11.9648 14.6016 12.0495 14.5365 12.0625 14.4844C12.1146 14.2891 12.1536 14.0742 12.1797 13.8398C12.2057 13.6055 12.2188 13.3451 12.2188 13.0586V11.2031C12.2188 10.1224 12.069 9.36719 11.7695 8.9375C11.4831 8.50781 11.0208 8.29297 10.3828 8.29297C9.96615 8.29297 9.60156 8.41016 9.28906 8.64453C8.97656 8.86589 8.82031 9.10677 8.82031 9.36719V12.7266C8.82031 13.5469 8.86589 14.1328 8.95703 14.4844C8.98307 14.5365 9.07422 14.6016 9.23047 14.6797C9.38672 14.7448 9.55599 14.8034 9.73828 14.8555C9.92057 14.8945 10.0443 14.9141 10.1094 14.9141C10.1615 14.9141 10.1875 15.0117 10.1875 15.207C10.2005 15.3893 10.194 15.513 10.168 15.5781C10.1029 15.5651 9.91406 15.5456 9.60156 15.5195C9.30208 15.5065 8.98307 15.4935 8.64453 15.4805C8.30599 15.4544 8.03255 15.4414 7.82422 15.4414C7.61589 15.4414 7.33594 15.4544 6.98438 15.4805C6.63281 15.4935 6.30078 15.5065 5.98828 15.5195C5.6888 15.5456 5.5 15.5651 5.42188 15.5781Z" fill="white" fill-opacity="0.5"/>
<path d="M18.7461 26.4023C18.7109 26.3438 18.6934 26.2383 18.6934 26.0859C18.6934 25.9102 18.7109 25.8223 18.7461 25.8223C18.8398 25.8223 18.9688 25.7988 19.1328 25.752C19.3086 25.7168 19.4668 25.6641 19.6074 25.5938C19.7598 25.5352 19.8477 25.4766 19.8711 25.418C19.9414 25.0781 19.9766 24.6562 19.9766 24.1523V17.4375C19.9766 16.8633 19.8828 16.4824 19.6953 16.2949C19.5898 16.166 19.4609 16.0781 19.3086 16.0312C19.1562 15.9844 19.0156 15.9551 18.8867 15.9434C18.7695 15.9316 18.7109 15.9141 18.7109 15.8906C18.7109 15.5508 18.7461 15.375 18.8164 15.3633C19.2969 15.3164 19.7539 15.252 20.1875 15.1699C20.6328 15.0879 21.0488 14.9883 21.4355 14.8711L21.7695 14.7832C21.8164 14.7832 21.8398 14.8828 21.8398 15.082C21.8398 15.1406 21.834 15.1934 21.8223 15.2402C21.8223 15.2754 21.8164 15.3164 21.8047 15.3633C21.9922 15.2227 22.25 15.0879 22.5781 14.959C22.918 14.8184 23.2344 14.748 23.5273 14.748C24.2422 14.748 24.8809 14.918 25.4434 15.2578C26.0059 15.5977 26.4453 16.0488 26.7617 16.6113C27.0898 17.1738 27.2539 17.7891 27.2539 18.457C27.2539 19.2539 27.0664 19.9688 26.6914 20.6016C26.3164 21.2344 25.8125 21.7324 25.1797 22.0957C24.5586 22.459 23.873 22.6406 23.123 22.6406C22.8066 22.6406 22.3906 22.5586 21.875 22.3945C21.8281 22.3945 21.8047 22.4766 21.8047 22.6406V23.8359C21.8047 24.5391 21.8516 25.0664 21.9453 25.418C21.957 25.4766 22.0332 25.5352 22.1738 25.5938C22.3262 25.6641 22.4844 25.7168 22.6484 25.752C22.8242 25.7988 22.9473 25.8223 23.0176 25.8223C23.0527 25.8223 23.0703 25.9043 23.0703 26.0684C23.082 26.2441 23.082 26.3555 23.0703 26.4023L22.1387 26.3496C21.5996 26.3145 21.1953 26.2969 20.9258 26.2969C20.6328 26.2969 20.2227 26.3145 19.6953 26.3496L18.7461 26.4023ZM23.2988 21.7969C23.8379 21.7969 24.2891 21.5508 24.6523 21.0586C25.0273 20.5664 25.2148 19.875 25.2148 18.9844C25.2148 18.0352 25.0273 17.25 24.6523 16.6289C24.2773 15.9961 23.7617 15.6797 23.1055 15.6797C22.7188 15.6797 22.4023 15.791 22.1562 16.0137C21.9219 16.2363 21.8047 16.5352 21.8047 16.9102V20.5312C21.8047 20.918 21.9629 21.2285 22.2793 21.4629C22.5957 21.6855 22.9355 21.7969 23.2988 21.7969Z" fill="white" fill-opacity="0.5"/>
<defs>
<filter id="filter0_f_107_94" x="0.0859375" y="1.32446" width="31.9585" height="28.6526" filterUnits="userSpaceOnUse" color-interpolation-filters="sRGB">
<feFlood flood-opacity="0" result="BackgroundImageFix"/>
<feBlend mode="normal" in="SourceGraphic" in2="BackgroundImageFix" result="shape"/>
<feGaussianBlur stdDeviation="4" result="effect1_foregroundBlur_107_94"/>
</filter>
</defs>
</svg>
